<?xml version="1.0" standalone="no"?>
<!DOCTYPE svg PUBLIC "-//W3C//DTD SVG 20010904//EN"
 "http://www.w3.org/TR/2001/REC-SVG-20010904/DTD/svg10.dtd">
<svg version="1.0" xmlns="http://www.w3.org/2000/svg"
 width="512.000000pt" height="512.000000pt" viewBox="0 0 512.000000 512.000000"
 preserveAspectRatio="xMidYMid meet">
<metadata>
Created by potrace 1.11, written by Peter Selinger 2001-2013
</metadata>
<g transform="translate(0.000000,512.000000) scale(0.100000,-0.100000)"
fill="#000000" stroke="none">
<path d="M160 2560 l0 -2400 2400 0 2400 0 0 2400 0 2400 -2400 0 -2400 0 0
-2400z m1200 1720 l0 -520 -520 0 -520 0 0 520 0 520 520 0 520 0 0 -520z
m1120 0 l0 -520 -480 0 -480 0 0 520 0 520 480 0 480 0 0 -520z m1120 0 l0
-520 -480 0 -480 0 0 520 0 520 480 0 480 0 0 -520z m1200 0 l0 -520 -520 0
-520 0 0 520 0 520 520 0 520 0 0 -520z m-3440 -1160 l0 -480 -520 0 -520 0 0
480 0 480 520 0 520 0 0 -480z m1120 0 l0 -480 -480 0 -480 0 0 480 0 480 480
0 480 0 0 -480z m1120 0 l0 -480 -480 0 -480 0 0 480 0 480 480 0 480 0 0
-480z m1200 0 l0 -480 -520 0 -520 0 0 480 0 480 520 0 520 0 0 -480z m-3440
-1120 l0 -480 -520 0 -520 0 0 480 0 480 520 0 520 0 0 -480z m1120 0 l0 -480
-480 0 -480 0 0 480 0 480 480 0 480 0 0 -480z m1120 0 l0 -480 -480 0 -480 0
0 480 0 480 480 0 480 0 0 -480z m1200 0 l0 -480 -520 0 -520 0 0 480 0 480
520 0 520 0 0 -480z m-3440 -1160 l0 -520 -520 0 -520 0 0 520 0 520 520 0
520 0 0 -520z m1120 0 l0 -520 -480 0 -480 0 0 520 0 520 480 0 480 0 0 -520z
m1120 0 l0 -520 -480 0 -480 0 0 520 0 520 480 0 480 0 0 -520z m1200 0 l0
-520 -520 0 -520 0 0 520 0 520 520 0 520 0 0 -520z"/>
<path d="M640 4480 l0 -80 80 0 80 0 0 80 0 80 -80 0 -80 0 0 -80z"/>
<path d="M880 4240 l0 -80 80 0 80 0 0 80 0 80 -80 0 -80 0 0 -80z"/>
<path d="M1893 4542 c-234 -84 -288 -392 -95 -549 163 -133 407 -76 496 116
30 65 30 197 0 262 -31 66 -87 124 -151 155 -73 36 -176 42 -250 16z"/>
<path d="M4133 4542 c-234 -84 -288 -392 -95 -549 163 -133 407 -76 496 116
30 65 30 197 0 262 -31 66 -87 124 -151 155 -73 36 -176 42 -250 16z"/>
<path d="M693 3422 c-234 -84 -288 -392 -95 -549 163 -133 407 -76 496 116 30
65 30 197 0 262 -31 66 -87 124 -151 155 -73 36 -176 42 -250 16z"/>
<path d="M3013 3422 c-234 -84 -288 -392 -95 -549 163 -133 407 -76 496 116
30 65 30 197 0 262 -31 66 -87 124 -151 155 -73 36 -176 42 -250 16z"/>
<path d="M1893 2302 c-234 -84 -288 -392 -95 -549 163 -133 407 -76 496 116
30 65 30 197 0 262 -31 66 -87 124 -151 155 -73 36 -176 42 -250 16z m171
-156 c18 -8 46 -31 62 -52 24 -31 29 -47 29 -94 0 -67 -31 -116 -91 -145 -107
-50 -235 43 -221 161 12 107 121 172 221 130z"/>
<path d="M4133 2302 c-234 -84 -288 -392 -95 -549 163 -133 407 -76 496 116
30 65 30 197 0 262 -31 66 -87 124 -151 155 -73 36 -176 42 -250 16z m171
-156 c18 -8 46 -31 62 -52 24 -31 29 -47 29 -94 0 -67 -31 -116 -91 -145 -107
-50 -235 43 -221 161 12 107 121 172 221 130z"/>
<path d="M693 1182 c-234 -84 -288 -392 -95 -549 163 -133 407 -76 496 116 30
65 30 197 0 262 -31 66 -87 124 -151 155 -73 36 -176 42 -250 16z m171 -156
c18 -8 46 -31 62 -52 24 -31 29 -47 29 -94 0 -67 -31 -116 -91 -145 -107 -50
-235 43 -221 161 12 107 121 172 221 130z"/>
<path d="M3013 1182 c-234 -84 -288 -392 -95 -549 163 -133 407 -76 496 116
30 65 30 197 0 262 -31 66 -87 124 -151 155 -73 36 -176 42 -250 16z m171
-156 c18 -8 46 -31 62 -52 24 -31 29 -47 29 -94 0 -67 -31 -116 -91 -145 -107
-50 -235 43 -221 161 12 107 121 172 221 130z"/>
<path d="M4480 840 l0 -200 -120 0 -120 0 0 -80 0 -80 200 0 200 0 0 280 0
280 -80 0 -80 0 0 -200z"/>
<path d="M3920 560 l0 -80 80 0 80 0 0 80 0 80 -80 0 -80 0 0 -80z"/>
</g>
</svg>
